<svg xmlns="http://www.w3.org/2000/svg" viewBox="0 0 32 32" role="img" aria-label="Texas">
  <path fill="#8a1518" d="M9.69 2.74
    L16.17 2.74 L16.17 7.56
    L17.88 7.96 L19.15 8.56 L20.22 8.63 L21.29 8.98 L22.14 9.15 L22.78 9.28
    L23.63 9.70 L24.70 9.33 L25.65 9.10 L26.40 9.70 L27.47 9.65 L28.87 10.07
    L28.87 11.39 L28.87 13.98
    L29.28 14.92 L29.49 15.92 L29.92 16.29 L29.55 17.41 L29.60 18.16
    L29.28 18.90 L29.11 19.40 L29.30 19.70
    L27.36 20.52 L26.61 21.14 L25.76 21.76 L24.70 22.39 L23.84 22.88
    L22.99 23.51 L22.14 24.25 L21.82 25.37 L21.92 26.61 L22.14 27.86
    L22.24 28.73 L21.82 29.25
    L20.01 28.73 L19.15 28.23 L18.09 27.86 L17.34 26.24 L17.24 25.12
    L16.60 24.38 L15.53 23.38 L14.79 22.39 L14.47 21.14 L13.19 19.53
    L11.27 19.23 L10.42 19.53 L10.10 20.89 L9.46 21.44 L8.07 20.69
    L7.43 20.40 L6.16 19.15 L5.73 17.41 L4.66 16.79 L3.39 15.42
    L2.32 14.55 L2.04 14.13 L2.06 13.93
    L9.65 13.93 L9.69 2.74 Z"/>
</svg>
